<svg width="96" height="40" viewBox="0 0 96 40" fill="none" xmlns="http://www.w3.org/2000/svg">
<path d="M1 22.0377H19.3872V7.3113H1V38.0263H25.5163V1H1H75.0204" stroke="#B37B83" stroke-linecap="round" stroke-linejoin="round"/>
<path d="M35.7572 25.9529C36.6932 25.9529 37.5572 26.1869 38.3492 26.6549C39.1412 27.1109 39.7652 27.7349 40.2212 28.5269C40.6892 29.3189 40.9232 30.1829 40.9232 31.1189V33.8549C40.9232 34.7909 40.6892 35.6549 40.2212 36.4469C39.7652 37.2389 39.1412 37.8689 38.3492 38.3369C37.5572 38.7929 36.6932 39.0209 35.7572 39.0209C34.8212 39.0209 33.9572 38.7929 33.1652 38.3369C32.3732 37.8689 31.7432 37.2389 31.2752 36.4469C30.8192 35.6549 30.5912 34.7909 30.5912 33.8549V31.1189C30.5912 30.1829 30.8192 29.3189 31.2752 28.5269C31.7432 27.7349 32.3732 27.1109 33.1652 26.6549C33.9572 26.1869 34.8212 25.9529 35.7572 25.9529ZM31.2572 33.8549C31.2572 34.6709 31.4552 35.4269 31.8512 36.1229C32.2592 36.8069 32.8052 37.3529 33.4892 37.7609C34.1852 38.1569 34.9412 38.3549 35.7572 38.3549C36.5732 38.3549 37.3232 38.1569 38.0072 37.7609C38.7032 37.3529 39.2492 36.8069 39.6452 36.1229C40.0532 35.4269 40.2572 34.6709 40.2572 33.8549V31.1189C40.2572 30.3029 40.0532 29.5529 39.6452 28.8689C39.2492 28.1729 38.7032 27.6269 38.0072 27.2309C37.3232 26.8229 36.5732 26.6189 35.7572 26.6189C34.9412 26.6189 34.1852 26.8229 33.4892 27.2309C32.8052 27.6269 32.2592 28.1729 31.8512 28.8689C31.4552 29.5529 31.2572 30.3029 31.2572 31.1189V33.8549ZM51.5294 26.6369C52.2494 26.9729 52.8134 27.4709 53.2214 28.1309C53.6414 28.7909 53.8514 29.5229 53.8514 30.3269C53.8514 31.2629 53.5634 32.1029 52.9874 32.8469C52.4234 33.5789 51.6974 34.0649 50.8094 34.3049L53.9954 38.7509H53.2034L50.1254 34.4309L49.5494 34.4489H45.0314V38.7509H44.3654V26.2229H49.1354C49.6634 26.2229 50.1134 26.2589 50.4854 26.3309C50.8694 26.3909 51.2174 26.4929 51.5294 26.6369ZM49.7294 33.7829C50.3534 33.7829 50.9294 33.6269 51.4574 33.3149C51.9854 33.0029 52.4054 32.5829 52.7174 32.0549C53.0294 31.5269 53.1854 30.9509 53.1854 30.3269C53.1854 29.6309 52.9994 29.0009 52.6274 28.4369C52.2674 27.8729 51.7634 27.4529 51.1154 27.1769C50.6474 26.9849 49.9874 26.8889 49.1354 26.8889H45.0314V33.7829H49.7294ZM64.5836 26.6369C65.3036 26.9729 65.8676 27.4709 66.2756 28.1309C66.6956 28.7909 66.9056 29.5229 66.9056 30.3269C66.9056 31.2629 66.6176 32.1029 66.0416 32.8469C65.4776 33.5789 64.7516 34.0649 63.8636 34.3049L67.0496 38.7509H66.2576L63.1796 34.4309L62.6036 34.4489H58.0856V38.7509H57.4196V26.2229H62.1896C62.7176 26.2229 63.1676 26.2589 63.5396 26.3309C63.9236 26.3909 64.2716 26.4929 64.5836 26.6369ZM62.7836 33.7829C63.4076 33.7829 63.9836 33.6269 64.5116 33.3149C65.0396 33.0029 65.4596 32.5829 65.7716 32.0549C66.0836 31.5269 66.2396 30.9509 66.2396 30.3269C66.2396 29.6309 66.0536 29.0009 65.6816 28.4369C65.3216 27.8729 64.8176 27.4529 64.1696 27.1769C63.7016 26.9849 63.0416 26.8889 62.1896 26.8889H58.0856V33.7829H62.7836ZM70.5998 26.2229H79.4198V26.8889H71.2658V31.9649H78.3578V32.6309H71.2658V38.0849H79.4198V38.7509H70.5998V26.2229ZM88.244 32.7569C87.224 32.5529 86.39 32.3309 85.742 32.0909C85.106 31.8389 84.602 31.5029 84.23 31.0829C83.87 30.6509 83.69 30.0989 83.69 29.4269C83.69 28.7309 83.87 28.1189 84.23 27.5909C84.602 27.0629 85.118 26.6549 85.778 26.3669C86.45 26.0789 87.224 25.9349 88.1 25.9349C88.94 25.9349 89.708 26.1149 90.404 26.4749C91.112 26.8229 91.67 27.3149 92.078 27.9509C92.486 28.5869 92.69 29.3129 92.69 30.1289H92.024C92.024 29.4209 91.85 28.7969 91.502 28.2569C91.154 27.7169 90.68 27.3029 90.08 27.0149C89.48 26.7149 88.814 26.5649 88.082 26.5649C87.434 26.5649 86.828 26.6669 86.264 26.8709C85.7 27.0749 85.238 27.3869 84.878 27.8069C84.53 28.2269 84.356 28.7549 84.356 29.3909C84.356 29.9669 84.524 30.4289 84.86 30.7769C85.196 31.1129 85.634 31.3709 86.174 31.5509C86.714 31.7309 87.47 31.9229 88.442 32.1269C89.426 32.3309 90.188 32.5289 90.728 32.7209C91.28 32.9009 91.742 33.2069 92.114 33.6389C92.498 34.0709 92.69 34.6769 92.69 35.4569C92.69 36.2369 92.48 36.8969 92.06 37.4369C91.652 37.9649 91.106 38.3609 90.422 38.6249C89.738 38.8889 88.994 39.0209 88.19 39.0209C87.194 39.0209 86.318 38.8349 85.562 38.4629C84.806 38.0909 84.224 37.5689 83.816 36.8969C83.42 36.2129 83.222 35.4329 83.222 34.5569H83.888C83.888 35.3249 84.056 35.9969 84.392 36.5729C84.74 37.1489 85.238 37.5989 85.886 37.9229C86.534 38.2349 87.302 38.3909 88.19 38.3909C89.294 38.3909 90.206 38.1269 90.926 37.5989C91.658 37.0709 92.024 36.3509 92.024 35.4389C92.024 34.8149 91.868 34.3349 91.556 33.9989C91.244 33.6629 90.848 33.4229 90.368 33.2789C89.9 33.1229 89.192 32.9489 88.244 32.7569Z" fill="#B37B83"/>
<path d="M38.3492 26.6549L38.2474 26.827L38.2494 26.8282L38.3492 26.6549ZM40.2212 28.5269L40.0478 28.6267L40.049 28.6286L40.2212 28.5269ZM40.2212 36.4469L40.049 36.3451L40.0478 36.3471L40.2212 36.4469ZM38.3492 38.3369L38.449 38.5102L38.4509 38.509L38.3492 38.3369ZM33.1652 38.3369L33.0634 38.5091L33.0654 38.5102L33.1652 38.3369ZM31.2752 36.4469L31.1018 36.5467L31.103 36.5486L31.2752 36.4469ZM31.2752 28.5269L31.103 28.4251L31.1018 28.4271L31.2752 28.5269ZM33.1652 26.6549L33.265 26.8282L33.2669 26.827L33.1652 26.6549ZM31.8512 36.1229L31.6773 36.2218L31.6794 36.2253L31.8512 36.1229ZM33.4892 37.7609L33.3867 37.9327L33.3903 37.9347L33.4892 37.7609ZM38.0072 37.7609L38.1074 37.9339L38.1083 37.9334L38.0072 37.7609ZM39.6452 36.1229L39.4726 36.0217L39.4721 36.0226L39.6452 36.1229ZM39.6452 28.8689L39.4713 28.9678L39.4734 28.9713L39.6452 28.8689ZM38.0072 27.2309L37.9047 27.4027L37.9083 27.4047L38.0072 27.2309ZM33.4892 27.2309L33.5894 27.4039L33.5903 27.4034L33.4892 27.2309ZM31.8512 28.8689L31.6786 28.7677L31.6781 28.7686L31.8512 28.8689ZM35.7572 26.1529C36.658 26.1529 37.4868 26.3776 38.2474 26.827L38.4509 26.4827C37.6275 25.9961 36.7283 25.7529 35.7572 25.7529V26.1529ZM38.2494 26.8282C39.0108 27.2666 39.6094 27.8652 40.0478 28.6266L40.3945 28.4271C39.9209 27.6045 39.2715 26.9551 38.449 26.4815L38.2494 26.8282ZM40.049 28.6286C40.4984 29.3892 40.7232 30.218 40.7232 31.1189H41.1232C41.1232 30.1477 40.8799 29.2485 40.3934 28.4251L40.049 28.6286ZM40.7232 31.1189V33.8549H41.1232V31.1189H40.7232ZM40.7232 33.8549C40.7232 34.7557 40.4984 35.5845 40.049 36.3451L40.3934 36.5486C40.8799 35.7252 41.1232 34.826 41.1232 33.8549H40.7232ZM40.0478 36.3471C39.6092 37.109 39.0099 37.7141 38.2474 38.1647L38.4509 38.509C39.2724 38.0236 39.9212 37.3688 40.3945 36.5466L40.0478 36.3471ZM38.2494 38.1635C37.4885 38.6016 36.659 38.8209 35.7572 38.8209V39.2209C36.7273 39.2209 37.6258 38.9841 38.449 38.5102L38.2494 38.1635ZM35.7572 38.8209C34.8553 38.8209 34.0258 38.6016 33.265 38.1635L33.0654 38.5102C33.8885 38.9841 34.787 39.2209 35.7572 39.2209V38.8209ZM33.2669 38.1647C32.504 37.7138 31.8982 37.1081 31.4474 36.3451L31.103 36.5486C31.5881 37.3696 32.2424 38.0239 33.0634 38.509L33.2669 38.1647ZM31.4485 36.3471C31.0104 35.5862 30.7912 34.7567 30.7912 33.8549H30.3912C30.3912 34.825 30.6279 35.7235 31.1018 36.5466L31.4485 36.3471ZM30.7912 33.8549V31.1189H30.3912V33.8549H30.7912ZM30.7912 31.1189C30.7912 30.217 31.0104 29.3875 31.4485 28.6266L31.1018 28.4271C30.6279 29.2502 30.3912 30.1487 30.3912 31.1189H30.7912ZM31.4474 28.6286C31.8979 27.8661 32.5031 27.2668 33.265 26.8282L33.0654 26.4815C32.2433 26.9549 31.5884 27.6036 31.103 28.4251L31.4474 28.6286ZM33.2669 26.827C34.0275 26.3776 34.8563 26.1529 35.7572 26.1529V25.7529C34.786 25.7529 33.8868 25.9961 33.0634 26.4827L33.2669 26.827ZM31.0572 33.8549C31.0572 34.7048 31.2638 35.495 31.6773 36.2218L32.025 36.0239C31.6465 35.3587 31.4572 34.6369 31.4572 33.8549H31.0572ZM31.6794 36.2253C32.1044 36.9378 32.6742 37.5076 33.3867 37.9326L33.5916 37.5891C32.9361 37.1981 32.4139 36.6759 32.0229 36.0204L31.6794 36.2253ZM33.3903 37.9347C34.117 38.3482 34.9072 38.5549 35.7572 38.5549V38.1549C34.9752 38.1549 34.2533 37.9655 33.5881 37.587L33.3903 37.9347ZM35.7572 38.5549C36.6072 38.5549 37.3919 38.3482 38.1074 37.9339L37.907 37.5878C37.2544 37.9656 36.5392 38.1549 35.7572 38.1549V38.5549ZM38.1083 37.9334C38.8335 37.5083 39.4046 36.9376 39.8183 36.2231L39.4721 36.0226C39.0938 36.6761 38.5728 37.1974 37.906 37.5883L38.1083 37.9334ZM39.8177 36.224C40.2439 35.497 40.4572 34.706 40.4572 33.8549H40.0572C40.0572 34.6357 39.8624 35.3568 39.4726 36.0217L39.8177 36.224ZM40.4572 33.8549V31.1189H40.0572V33.8549H40.4572ZM40.4572 31.1189C40.4572 30.2677 40.2439 29.4822 39.8169 28.7664L39.4734 28.9713C39.8625 29.6235 40.0572 30.338 40.0572 31.1189H40.4572ZM39.819 28.7699C39.4052 28.0427 38.8333 27.4708 38.1061 27.057L37.9083 27.4047C38.573 27.7829 39.0931 28.303 39.4713 28.9678L39.819 28.7699ZM38.1096 27.0591C37.3939 26.6321 36.6083 26.4189 35.7572 26.4189V26.8189C36.538 26.8189 37.2525 27.0136 37.9047 27.4026L38.1096 27.0591ZM35.7572 26.4189C34.906 26.4189 34.1151 26.6321 33.388 27.0583L33.5903 27.4034C34.2553 27.0136 34.9763 26.8189 35.7572 26.8189V26.4189ZM33.389 27.0578C32.6744 27.4715 32.1037 28.0425 31.6786 28.7677L32.0237 28.97C32.4146 28.3032 32.9359 27.7822 33.5894 27.4039L33.389 27.0578ZM31.6781 28.7686C31.2639 29.4841 31.0572 30.2689 31.0572 31.1189H31.4572C31.4572 30.3368 31.6465 29.6216 32.0243 28.9691L31.6781 28.7686ZM31.0572 31.1189V33.8549H31.4572V31.1189H31.0572ZM51.5294 26.6369L51.614 26.4556L51.6132 26.4553L51.5294 26.6369ZM53.2214 28.1309L53.0513 28.236L53.0527 28.2382L53.2214 28.1309ZM52.9874 32.8469L52.8292 32.7244L52.829 32.7248L52.9874 32.8469ZM50.8094 34.3049L50.7572 34.1118L50.4789 34.187L50.6468 34.4214L50.8094 34.3049ZM53.9954 38.7509V38.9509H54.3848L54.158 38.6344L53.9954 38.7509ZM53.2034 38.7509L53.0405 38.8669L53.1003 38.9509H53.2034V38.7509ZM50.1254 34.4309L50.2883 34.3148L50.2261 34.2276L50.1191 34.231L50.1254 34.4309ZM49.5494 34.4489V34.649L49.5556 34.6488L49.5494 34.4489ZM45.0314 34.4489V34.2489H44.8314V34.4489H45.0314ZM45.0314 38.7509V38.9509H45.2314V38.7509H45.0314ZM44.3654 38.7509H44.1654V38.9509H44.3654V38.7509ZM44.3654 26.2229V26.0229H44.1654V26.2229H44.3654ZM50.4854 26.3309L50.4474 26.5273L50.4545 26.5285L50.4854 26.3309ZM51.4574 33.3149L51.3556 33.1427L51.4574 33.3149ZM52.7174 32.0549L52.5452 31.9531L52.7174 32.0549ZM52.6274 28.4369L52.4588 28.5445L52.4604 28.547L52.6274 28.4369ZM51.1154 27.1769L51.1938 26.9928L51.1913 26.9918L51.1154 27.1769ZM45.0314 26.8889V26.6889H44.8314V26.8889H45.0314ZM45.0314 33.7829H44.8314V33.9829H45.0314V33.7829ZM51.4448 26.8181C52.1304 27.138 52.6643 27.61 53.0513 28.236L53.3915 28.0257C52.9625 27.3317 52.3684 26.8077 51.614 26.4556L51.4448 26.8181ZM53.0527 28.2382C53.4516 28.8652 53.6514 29.5598 53.6514 30.3269H54.0514C54.0514 29.4859 53.8311 28.7165 53.3901 28.0235L53.0527 28.2382ZM53.6514 30.3269C53.6514 31.2183 53.3783 32.0153 52.8292 32.7244L53.1455 32.9693C53.7485 32.1904 54.0514 31.3074 54.0514 30.3269H53.6514ZM52.829 32.7248C52.2915 33.4223 51.6028 33.8833 50.7572 34.1118L50.8616 34.4979C51.792 34.2465 52.5553 33.7354 53.1458 32.9689L52.829 32.7248ZM50.6468 34.4214L53.8328 38.8674L54.158 38.6344L50.972 34.1884L50.6468 34.4214ZM53.9954 38.5509H53.2034V38.9509H53.9954V38.5509ZM53.3663 38.6348L50.2883 34.3148L49.9625 34.5469L53.0405 38.8669L53.3663 38.6348ZM50.1191 34.231L49.5431 34.249L49.5556 34.6488L50.1316 34.6308L50.1191 34.231ZM49.5494 34.2489H45.0314V34.6489H49.5494V34.2489ZM44.8314 34.4489V38.7509H45.2314V34.4489H44.8314ZM45.0314 38.5509H44.3654V38.9509H45.0314V38.5509ZM44.5654 38.7509V26.2229H44.1654V38.7509H44.5654ZM44.3654 26.4229H49.1354V26.0229H44.3654V26.4229ZM49.1354 26.4229C49.6552 26.4229 50.0917 26.4584 50.4474 26.5272L50.5234 26.1345C50.1351 26.0593 49.6716 26.0229 49.1354 26.0229V26.4229ZM50.4545 26.5285C50.8226 26.586 51.1524 26.6831 51.4456 26.8184L51.6132 26.4553C51.2823 26.3026 50.9162 26.1957 50.5163 26.1333L50.4545 26.5285ZM49.7294 33.9829C50.3885 33.9829 50.9998 33.8176 51.5591 33.487L51.3556 33.1427C50.859 33.4361 50.3183 33.5829 49.7294 33.5829V33.9829ZM51.5591 33.487C52.1162 33.1579 52.5604 32.7136 52.8896 32.1566L52.5452 31.9531C52.2504 32.4521 51.8546 32.8478 51.3556 33.1427L51.5591 33.487ZM52.8896 32.1566C53.2201 31.5972 53.3854 30.986 53.3854 30.3269H52.9854C52.9854 30.9157 52.8387 31.4565 52.5452 31.9531L52.8896 32.1566ZM53.3854 30.3269C53.3854 29.593 53.1886 28.9244 52.7943 28.3267L52.4604 28.547C52.8102 29.0773 52.9854 29.6688 52.9854 30.3269H53.3854ZM52.796 28.3292C52.4131 27.7294 51.8768 27.2838 51.1938 26.9928L51.037 27.3609C51.65 27.6219 52.1217 28.0163 52.4588 28.5445L52.796 28.3292ZM51.1913 26.9918C50.6882 26.7854 49.998 26.6889 49.1354 26.6889V27.0889C49.9767 27.0889 50.6066 27.1843 51.0395 27.3619L51.1913 26.9918ZM49.1354 26.6889H45.0314V27.0889H49.1354V26.6889ZM44.8314 26.8889V33.7829H45.2314V26.8889H44.8314ZM45.0314 33.9829H49.7294V33.5829H45.0314V33.9829ZM64.5836 26.6369L64.6682 26.4556L64.6674 26.4553L64.5836 26.6369ZM66.2756 28.1309L66.1055 28.236L66.1069 28.2382L66.2756 28.1309ZM66.0416 32.8469L65.8835 32.7244L65.8832 32.7248L66.0416 32.8469ZM63.8636 34.3049L63.8114 34.1118L63.5331 34.187L63.701 34.4214L63.8636 34.3049ZM67.0496 38.7509V38.9509H67.439L67.2122 38.6344L67.0496 38.7509ZM66.2576 38.7509L66.0947 38.8669L66.1545 38.9509H66.2576V38.7509ZM63.1796 34.4309L63.3425 34.3148L63.2804 34.2276L63.1734 34.231L63.1796 34.4309ZM62.6036 34.4489V34.649L62.6099 34.6488L62.6036 34.4489ZM58.0856 34.4489V34.2489H57.8856V34.4489H58.0856ZM58.0856 38.7509V38.9509H58.2856V38.7509H58.0856ZM57.4196 38.7509H57.2196V38.9509H57.4196V38.7509ZM57.4196 26.2229V26.0229H57.2196V26.2229H57.4196ZM63.5396 26.3309L63.5016 26.5273L63.5087 26.5285L63.5396 26.3309ZM64.5116 33.3149L64.4099 33.1427L64.5116 33.3149ZM65.7716 32.0549L65.5994 31.9531L65.7716 32.0549ZM65.6816 28.4369L65.513 28.5445L65.5147 28.547L65.6816 28.4369ZM64.1696 27.1769L64.248 26.9928L64.2455 26.9918L64.1696 27.1769ZM58.0856 26.8889V26.6889H57.8856V26.8889H58.0856ZM58.0856 33.7829H57.8856V33.9829H58.0856V33.7829ZM64.499 26.8181C65.1846 27.138 65.7185 27.61 66.1055 28.236L66.4457 28.0257C66.0167 27.3317 65.4226 26.8077 64.6682 26.4556L64.499 26.8181ZM66.1069 28.2382C66.5059 28.8652 66.7056 29.5598 66.7056 30.3269H67.1056C67.1056 29.4859 66.8853 28.7165 66.4443 28.0235L66.1069 28.2382ZM66.7056 30.3269C66.7056 31.2183 66.4325 32.0153 65.8835 32.7244L66.1997 32.9693C66.8027 32.1904 67.1056 31.3074 67.1056 30.3269H66.7056ZM65.8832 32.7248C65.3457 33.4223 64.657 33.8833 63.8114 34.1118L63.9158 34.4979C64.8462 34.2465 65.6095 33.7354 66.2 32.9689L65.8832 32.7248ZM63.701 34.4214L66.887 38.8674L67.2122 38.6344L64.0262 34.1884L63.701 34.4214ZM67.0496 38.5509H66.2576V38.9509H67.0496V38.5509ZM66.4205 38.6348L63.3425 34.3148L63.0167 34.5469L66.0947 38.8669L66.4205 38.6348ZM63.1734 34.231L62.5974 34.249L62.6099 34.6488L63.1859 34.6308L63.1734 34.231ZM62.6036 34.2489H58.0856V34.6489H62.6036V34.2489ZM57.8856 34.4489V38.7509H58.2856V34.4489H57.8856ZM58.0856 38.5509H57.4196V38.9509H58.0856V38.5509ZM57.6196 38.7509V26.2229H57.2196V38.7509H57.6196ZM57.4196 26.4229H62.1896V26.0229H57.4196V26.4229ZM62.1896 26.4229C62.7094 26.4229 63.1459 26.4584 63.5016 26.5272L63.5776 26.1345C63.1893 26.0593 62.7258 26.0229 62.1896 26.0229V26.4229ZM63.5087 26.5285C63.8768 26.586 64.2066 26.6831 64.4998 26.8184L64.6674 26.4553C64.3366 26.3026 63.9704 26.1957 63.5705 26.1333L63.5087 26.5285ZM62.7836 33.9829C63.4427 33.9829 64.054 33.8176 64.6133 33.487L64.4099 33.1427C63.9132 33.4361 63.3725 33.5829 62.7836 33.5829V33.9829ZM64.6133 33.487C65.1704 33.1579 65.6146 32.7136 65.9438 32.1566L65.5994 31.9531C65.3046 32.4521 64.9088 32.8478 64.4099 33.1427L64.6133 33.487ZM65.9438 32.1566C66.2743 31.5972 66.4396 30.986 66.4396 30.3269H66.0396C66.0396 30.9157 65.8929 31.4565 65.5994 31.9531L65.9438 32.1566ZM66.4396 30.3269C66.4396 29.593 66.2428 28.9244 65.8486 28.3267L65.5147 28.547C65.8644 29.0773 66.0396 29.6688 66.0396 30.3269H66.4396ZM65.8502 28.3292C65.4673 27.7294 64.931 27.2838 64.248 26.9928L64.0912 27.3609C64.7042 27.6219 65.1759 28.0163 65.513 28.5445L65.8502 28.3292ZM64.2455 26.9918C63.7424 26.7854 63.0523 26.6889 62.1896 26.6889V27.0889C63.0309 27.0889 63.6608 27.1843 64.0937 27.3619L64.2455 26.9918ZM62.1896 26.6889H58.0856V27.0889H62.1896V26.6889ZM57.8856 26.8889V33.7829H58.2856V26.8889H57.8856ZM58.0856 33.9829H62.7836V33.5829H58.0856V33.9829ZM70.5998 26.2229V26.0229H70.3998V26.2229H70.5998ZM79.4198 26.2229H79.6198V26.0229H79.4198V26.2229ZM79.4198 26.8889V27.0889H79.6198V26.8889H79.4198ZM71.2658 26.8889V26.6889H71.0658V26.8889H71.2658ZM71.2658 31.9649H71.0658V32.1649H71.2658V31.9649ZM78.3578 31.9649H78.5578V31.7649H78.3578V31.9649ZM78.3578 32.6309V32.8309H78.5578V32.6309H78.3578ZM71.2658 32.6309V32.4309H71.0658V32.6309H71.2658ZM71.2658 38.0849H71.0658V38.2849H71.2658V38.0849ZM79.4198 38.0849H79.6198V37.8849H79.4198V38.0849ZM79.4198 38.7509V38.9509H79.6198V38.7509H79.4198ZM70.5998 38.7509H70.3998V38.9509H70.5998V38.7509ZM70.5998 26.4229H79.4198V26.0229H70.5998V26.4229ZM79.2198 26.2229V26.8889H79.6198V26.2229H79.2198ZM79.4198 26.6889H71.2658V27.0889H79.4198V26.6889ZM71.0658 26.8889V31.9649H71.4658V26.8889H71.0658ZM71.2658 32.1649H78.3578V31.7649H71.2658V32.1649ZM78.1578 31.9649V32.6309H78.5578V31.9649H78.1578ZM78.3578 32.4309H71.2658V32.8309H78.3578V32.4309ZM71.0658 32.6309V38.0849H71.4658V32.6309H71.0658ZM71.2658 38.2849H79.4198V37.8849H71.2658V38.2849ZM79.2198 38.0849V38.7509H79.6198V38.0849H79.2198ZM79.4198 38.5509H70.5998V38.9509H79.4198V38.5509ZM70.7998 38.7509V26.2229H70.3998V38.7509H70.7998ZM88.244 32.7569L88.2837 32.5608L88.2833 32.5607L88.244 32.7569ZM85.742 32.0909L85.6684 32.2768L85.6726 32.2784L85.742 32.0909ZM84.23 31.0829L84.0763 31.2109L84.0803 31.2155L84.23 31.0829ZM84.23 27.5909L84.0665 27.4757L84.0648 27.4782L84.23 27.5909ZM85.778 26.3669L85.6993 26.183L85.6981 26.1835L85.778 26.3669ZM90.404 26.4749L90.3121 26.6525L90.3158 26.6543L90.404 26.4749ZM92.078 27.9509L92.2464 27.8429L92.078 27.9509ZM92.69 30.1289V30.3289H92.89V30.1289H92.69ZM92.024 30.1289H91.824V30.3289H92.024V30.1289ZM91.502 28.2569L91.6702 28.1485L91.502 28.2569ZM90.08 27.0149L89.9906 27.1938L89.9935 27.1952L90.08 27.0149ZM86.264 26.8709L86.196 26.6828L86.264 26.8709ZM84.878 27.8069L84.7262 27.6767L84.724 27.6793L84.878 27.8069ZM84.86 30.7769L84.7161 30.9158L84.7186 30.9183L84.86 30.7769ZM86.174 31.5509L86.1108 31.7406L86.174 31.5509ZM88.442 32.1269L88.401 32.3226L88.4014 32.3227L88.442 32.1269ZM90.728 32.7209L90.661 32.9094L90.666 32.911L90.728 32.7209ZM92.114 33.6389L91.9625 33.7694L91.9646 33.7717L92.114 33.6389ZM92.06 37.4369L91.9022 37.3141L91.9018 37.3146L92.06 37.4369ZM90.422 38.6249L90.4941 38.8114L90.422 38.6249ZM85.562 38.4629L85.6503 38.2834L85.562 38.4629ZM83.816 36.8969L83.6429 36.9971L83.6451 37.0007L83.816 36.8969ZM83.222 34.5569V34.3569H83.022V34.5569H83.222ZM83.888 34.5569H84.088V34.3569H83.888V34.5569ZM84.392 36.5729L84.2193 36.6736L84.2209 36.6763L84.392 36.5729ZM85.886 37.9229L85.7966 38.1018L85.7993 38.1031L85.886 37.9229ZM90.926 37.5989L90.809 37.4366L90.8078 37.4376L90.926 37.5989ZM91.556 33.9989L91.4095 34.1349L91.556 33.9989ZM90.368 33.2789L90.3048 33.4687L90.3106 33.4704L90.368 33.2789ZM88.2833 32.5607C87.269 32.3579 86.4461 32.1383 85.8115 31.9033L85.6726 32.2784C86.334 32.5234 87.1791 32.7478 88.2048 32.953L88.2833 32.5607ZM85.8157 31.9049C85.2026 31.662 84.7269 31.3421 84.3798 30.9502L84.0803 31.2155C84.4772 31.6636 85.0095 32.0157 85.6684 32.2768L85.8157 31.9049ZM84.3837 30.9548C84.0592 30.5655 83.89 30.0616 83.89 29.4269H83.49C83.49 30.1361 83.6809 30.7363 84.0764 31.2109L84.3837 30.9548ZM83.89 29.4269C83.89 28.7673 84.06 28.1953 84.3953 27.7035L84.0648 27.4782C83.6801 28.0424 83.49 28.6944 83.49 29.4269H83.89ZM84.3935 27.706C84.7421 27.2113 85.2276 26.8253 85.858 26.5502L85.6981 26.1835C85.0085 26.4845 84.462 26.9144 84.0665 27.4757L84.3935 27.706ZM85.8568 26.5507C86.4995 26.2752 87.2459 26.1349 88.1 26.1349V25.7349C87.2022 25.7349 86.4006 25.8825 85.6993 26.183L85.8568 26.5507ZM88.1 26.1349C88.9104 26.1349 89.6466 26.3082 90.3122 26.6525L90.4959 26.2972C89.7695 25.9215 88.9697 25.7349 88.1 25.7349V26.1349ZM90.3158 26.6543C90.9926 26.987 91.5223 27.4549 91.9097 28.0588L92.2464 27.8429C91.8178 27.1748 91.2315 26.6587 90.4923 26.2954L90.3158 26.6543ZM91.9097 28.0588C92.2954 28.66 92.49 29.3479 92.49 30.1289H92.89C92.89 29.2778 92.6767 28.5137 92.2464 27.8429L91.9097 28.0588ZM92.69 29.9289H92.024V30.3289H92.69V29.9289ZM92.224 30.1289C92.224 29.3865 92.0411 28.7241 91.6702 28.1485L91.3339 28.3652C91.659 28.8696 91.824 29.4552 91.824 30.1289H92.224ZM91.6702 28.1485C91.3014 27.5763 90.7986 27.1379 90.1666 26.8345L89.9935 27.1952C90.5614 27.4678 91.0067 27.8574 91.3339 28.3652L91.6702 28.1485ZM90.1695 26.836C89.5392 26.5208 88.8422 26.3649 88.082 26.3649V26.7649C88.7859 26.7649 89.4208 26.9089 89.9906 27.1937L90.1695 26.836ZM88.082 26.3649C87.4127 26.3649 86.7835 26.4703 86.196 26.6828L86.3321 27.0589C86.8726 26.8634 87.4554 26.7649 88.082 26.7649V26.3649ZM86.196 26.6828C85.6024 26.8975 85.1105 27.2283 84.7262 27.6767L85.0299 27.937C85.3655 27.5454 85.7977 27.2522 86.3321 27.0589L86.196 26.6828ZM84.724 27.6793C84.3415 28.1409 84.156 28.7164 84.156 29.3909H84.556C84.556 28.7933 84.7186 28.3128 85.032 27.9345L84.724 27.6793ZM84.156 29.3909C84.156 30.0081 84.3374 30.5235 84.7162 30.9158L85.0039 30.6379C84.7106 30.3342 84.556 29.9256 84.556 29.3909H84.156ZM84.7186 30.9183C85.0805 31.2802 85.5471 31.5527 86.1108 31.7406L86.2373 31.3611C85.721 31.189 85.3116 30.9455 85.0015 30.6354L84.7186 30.9183ZM86.1108 31.7406C86.6615 31.9242 87.4261 32.118 88.401 32.3226L88.4831 31.9311C87.514 31.7277 86.7666 31.5376 86.2373 31.3611L86.1108 31.7406ZM88.4014 32.3227C89.3821 32.526 90.1337 32.7218 90.661 32.9093L90.795 32.5324C90.2423 32.3359 89.47 32.1357 88.4826 31.931L88.4014 32.3227ZM90.666 32.911C91.184 33.0799 91.6148 33.3656 91.9625 33.7694L92.2656 33.5083C91.8693 33.0481 91.3761 32.7218 90.79 32.5307L90.666 32.911ZM91.9646 33.7717C92.3061 34.156 92.49 34.7085 92.49 35.4569H92.89C92.89 34.6452 92.69 33.9857 92.2635 33.506L91.9646 33.7717ZM92.49 35.4569C92.49 36.1989 92.2911 36.814 91.9022 37.3141L92.2179 37.5596C92.669 36.9797 92.89 36.2748 92.89 35.4569H92.49ZM91.9018 37.3146C91.5183 37.8108 91.0034 38.1861 90.35 38.4383L90.4941 38.8114C91.2087 38.5356 91.7858 38.1189 92.2183 37.5591L91.9018 37.3146ZM90.35 38.4383C89.6911 38.6926 88.9718 38.8209 88.19 38.8209V39.2209C89.0163 39.2209 89.785 39.0851 90.4941 38.8114L90.35 38.4383ZM88.19 38.8209C87.2191 38.8209 86.3743 38.6396 85.6503 38.2834L85.4737 38.6423C86.2618 39.0301 87.169 39.2209 88.19 39.2209V38.8209ZM85.6503 38.2834C84.926 37.927 84.3738 37.4301 83.987 36.7931L83.6451 37.0007C84.0743 37.7076 84.6861 38.2547 85.4737 38.6423L85.6503 38.2834ZM83.9891 36.7966C83.6126 36.1463 83.422 35.4016 83.422 34.5569H83.022C83.022 35.4641 83.2275 36.2794 83.643 36.9971L83.9891 36.7966ZM83.222 34.7569H83.888V34.3569H83.222V34.7569ZM83.688 34.5569C83.688 35.3548 83.8629 36.0627 84.2193 36.6736L84.5648 36.4721C84.2492 35.9311 84.088 35.2949 84.088 34.5569H83.688ZM84.2209 36.6763C84.5899 37.2871 85.1175 37.7622 85.7966 38.1017L85.9755 37.744C85.3586 37.4355 84.8902 37.0106 84.5632 36.4694L84.2209 36.6763ZM85.7993 38.1031C86.4799 38.4308 87.2789 38.5909 88.19 38.5909V38.1909C87.3252 38.1909 86.5881 38.0389 85.9728 37.7427L85.7993 38.1031ZM88.19 38.5909C89.3264 38.5909 90.2826 38.3187 91.0443 37.7601L90.8078 37.4376C90.1295 37.935 89.2617 38.1909 88.19 38.1909V38.5909ZM91.043 37.7611C91.8278 37.195 92.224 36.4143 92.224 35.4389H91.824C91.824 36.2874 91.4883 36.9467 90.809 37.4366L91.043 37.7611ZM92.224 35.4389C92.224 34.7828 92.0597 34.2474 91.7026 33.8628L91.4095 34.1349C91.6763 34.4223 91.824 34.8469 91.824 35.4389H92.224ZM91.7026 33.8628C91.3642 33.4983 90.9363 33.2405 90.4255 33.0873L90.3106 33.4704C90.7597 33.6052 91.1239 33.8274 91.4095 34.1349L91.7026 33.8628ZM90.4313 33.0891C89.9514 32.9291 89.2337 32.7532 88.2837 32.5608L88.2043 32.9529C89.1504 33.1445 89.8487 33.3166 90.3048 33.4686L90.4313 33.0891Z" fill="#B37B83"/>
</svg>
